# Blender v3.2.2 OBJ File: 'Dungeon Voxel Assets.blend'
# www.blender.org
mtllib Wall_WDoor_Ext_SemiBrick.mtl
o Wall_WDoor_Ext_SemiBrick_Wall_WDoor_Ext_SemiBrick.001
v -1.519652 -1.428324 0.169942
v -1.519652 -1.028324 0.069942
v -1.519652 -0.428324 0.069942
v -1.519652 -0.228324 -0.030058
v -1.519652 0.071676 0.069942
v -1.519652 0.671676 0.069942
v -1.519652 0.671676 -0.030058
v -1.519652 1.671676 0.469942
v -1.519652 1.671676 -1.030058
v 0.280347 0.571676 -0.330058
v 0.380347 0.371676 -0.030058
v 0.380347 0.371676 -0.330058
v 0.480348 0.371676 -0.030058
v 0.580346 -1.328324 0.169942
v 0.580346 -1.328324 0.069942
v 0.580346 -0.828324 0.069942
v 0.580346 -0.828324 -0.030058
v 0.580346 -0.528324 0.069942
v 0.580346 -0.728324 0.069942
v 0.580346 -0.528324 -0.030058
v 0.580346 -0.428324 -0.030058
v 0.580346 -0.128324 -0.030058
v 0.580346 0.271676 -0.330058
v -0.619653 -1.428324 -0.330058
v -0.619653 -1.128324 0.069942
v -0.619653 -1.128324 -0.030058
v -0.619653 -1.028324 -0.030058
v -0.619653 -0.828324 0.069942
v -0.619653 -0.828324 -0.030058
v -0.619653 -0.528324 0.069942
v -0.619653 -0.528324 -0.030058
v -0.619653 -0.428324 0.069942
v -0.619653 -0.228324 0.069942
v -0.619653 -0.128324 -0.030058
v -0.619653 0.171676 0.069942
v -0.519652 0.371676 -0.330058
v -0.419654 0.371676 -0.330058
v -0.419654 0.471676 0.069942
v -0.419654 0.571676 0.069942
v -0.319654 0.571676 -0.330058
v 1.580346 -1.428324 -1.030058
v 1.580346 -1.128324 -0.030058
v 1.580346 -0.828324 0.069942
v 1.580346 -0.728324 0.069942
v 1.580346 -0.528324 0.069942
v 1.580346 -0.428324 -0.030058
v 1.580346 0.071676 -0.030058
v 1.580346 0.171676 -0.030058
v 1.580346 0.371676 0.069942
v 1.580346 0.371676 -0.030058
v 1.580346 0.471676 -0.030058
v 1.580346 0.471676 0.069942
v 1.580346 0.671676 -0.030058
v 1.580346 0.971676 -0.030058
v 1.580346 1.371676 0.169942
v 1.580346 1.671676 0.469942
v -1.519652 1.571676 0.469942
v -1.519652 1.571676 0.369942
v -1.519652 1.471676 0.369942
v 1.580346 1.471676 0.369942
v -1.519652 1.471676 0.269942
v 1.580346 1.371676 0.269942
v -0.619653 -1.428324 0.169942
v -0.619653 -1.328324 0.169942
v 1.580346 -1.428324 0.169942
v 1.580346 -1.328324 0.169942
v 1.580346 1.271676 0.169942
v -1.519652 -1.328324 0.069942
v -1.519652 -1.128324 0.069942
v -1.519652 -0.728324 0.069942
v -1.519652 -0.128324 0.069942
v -1.519652 0.171676 0.069942
v -1.519652 0.471676 0.069942
v -1.519652 1.271676 0.069942
v -0.619653 -1.328324 0.069942
v -0.619653 -1.028324 0.069942
v -0.619653 -0.728324 0.069942
v -0.619653 -0.128324 0.069942
v -0.619653 0.271676 0.069942
v -0.519652 0.271676 0.069942
v 0.280347 0.571676 0.069942
v 0.280347 0.471676 0.069942
v 0.580346 0.271676 0.069942
v 0.480348 0.271676 0.069942
v 0.580346 -1.028324 0.069942
v 0.580346 -0.228324 0.069942
v 0.580346 -0.128324 0.069942
v 0.580346 0.071676 0.069942
v 0.580346 0.171676 0.069942
v 1.580346 -1.328324 0.069942
v 1.580346 -0.228324 0.069942
v 1.580346 -0.128324 0.069942
v 1.580346 0.071676 0.069942
v 1.580346 0.671676 0.069942
v 1.580346 0.771676 0.069942
v 1.580346 1.071676 0.069942
v -1.519652 -1.028324 -0.030058
v -1.519652 -0.428324 -0.030058
v -1.519652 0.071676 -0.030058
v -1.519652 0.471676 -0.030058
v -0.619653 -0.428324 -0.030058
v -0.619653 0.171676 -0.030058
v -0.419654 0.371676 -0.030058
v -0.419654 0.471676 -0.030058
v 0.380347 0.471676 -0.030058
v 0.580346 -0.728324 -0.030058
v 0.580346 -0.228324 -0.030058
v 1.580346 -1.028324 -0.030058
v 1.580346 -0.528324 -0.030058
v 1.580346 -0.228324 -0.030058
v 1.580346 -0.128324 -0.030058
v 1.580346 1.071676 -0.030058
v -0.519652 0.271676 -0.330058
v -0.419654 0.471676 -0.330058
v -0.319654 0.471676 -0.330058
v 0.380347 0.471676 -0.330058
v 0.480348 0.271676 -0.330058
v 1.580346 1.671676 -1.030058
v 0.580346 -1.428324 0.169942
v 0.580346 -1.428324 -0.330058
v -1.519652 -1.428324 -1.030058
v 0.580346 -1.028324 -0.030058
v 1.580346 -1.028324 0.069942
v -1.519652 -0.728324 -0.030058
v -0.619653 -0.728324 -0.030058
v 1.580346 -0.728324 -0.030058
v 0.580346 -0.428324 0.069942
v 1.580346 -0.428324 0.069942
v -1.519652 -0.128324 -0.030058
v -1.519652 0.171676 -0.030058
v 0.580346 0.171676 -0.030058
v 1.580346 0.171676 0.069942
v -0.619653 0.271676 -0.330058
v -0.519652 0.371676 -0.030058
v 0.480348 0.371676 -0.330058
v -0.319654 0.471676 -0.030058
v 0.280347 0.471676 -0.330058
v -0.419654 0.571676 -0.030058
v -0.319654 0.571676 -0.030058
v -1.519652 0.771676 -0.030058
v -1.519652 0.771676 0.069942
v 1.580346 0.771676 -0.030058
v -1.519652 1.071676 -0.030058
v -1.519652 1.071676 0.069942
v -1.519652 1.271676 0.169942
v 1.580346 1.271676 0.069942
v -1.519652 1.371676 0.169942
v -1.519652 1.371676 0.269942
v 1.580346 1.471676 0.269942
v 1.580346 1.571676 0.469942
v 1.580346 1.571676 0.369942
v -1.519652 -1.328324 0.169942
v -1.519652 -1.128324 -0.030058
v 0.580346 -1.128324 0.069942
v 0.580346 -1.128324 -0.030058
v 1.580346 -1.128324 0.069942
v -1.519652 -0.828324 0.069942
v -1.519652 -0.828324 -0.030058
v 1.580346 -0.828324 -0.030058
v -1.519652 -0.528324 0.069942
v -1.519652 -0.528324 -0.030058
v -1.519652 -0.228324 0.069942
v -0.619653 -0.228324 -0.030058
v -0.619653 0.071676 0.069942
v -0.619653 0.071676 -0.030058
v 0.580346 0.071676 -0.030058
v -1.519652 0.371676 0.069942
v -1.519652 0.371676 -0.030058
v -0.519652 0.371676 0.069942
v 0.480348 0.371676 0.069942
v -1.519652 0.971676 0.069942
v -1.519652 0.971676 -0.030058
v 1.580346 0.971676 0.069942
vt 0.934895 0.872805
vt 0.934895 0.436693
vt 0.948963 0.436693
vt 0.948963 0.872805
vt 0.963419 0.577374
vt 0.949351 0.577374
vt 0.949351 0.436693
vt 0.963419 0.436693
vt 0.989228 0.423014
vt 0.975160 0.423014
vt 0.975160 0.282333
vt 0.989228 0.282333
vt 0.216646 0.915398
vt 0.202577 0.915398
vt 0.202577 0.873193
vt 0.216646 0.873193
vt 0.100998 0.873193
vt 0.100998 0.929466
vt 0.086930 0.929466
vt 0.086930 0.873193
vt 0.873581 0.000195
vt 0.873581 0.436306
vt 0.859513 0.436306
vt 0.859513 0.000195
vt 0.187734 0.873193
vt 0.187734 0.915398
vt 0.173666 0.915398
vt 0.173666 0.873193
vt 0.408945 0.859125
vt 0.380809 0.859125
vt 0.380809 0.718445
vt 0.408945 0.718445
vt 0.960316 0.141264
vt 0.960316 0.281944
vt 0.946248 0.281944
vt 0.946248 0.141264
vt 0.945860 0.436306
vt 0.931792 0.436306
vt 0.931792 0.000195
vt 0.945860 0.000195
vt 0.920051 0.436693
vt 0.920051 0.872805
vt 0.905983 0.872805
vt 0.905983 0.436693
vt 0.905595 0.872805
vt 0.891527 0.872805
vt 0.891527 0.436693
vt 0.905595 0.436693
vt 0.963419 0.718832
vt 0.963419 0.859512
vt 0.949351 0.859512
vt 0.949351 0.718832
vt 0.564082 0.605511
vt 0.564082 0.577375
vt 0.578150 0.577375
vt 0.578150 0.563306
vt 0.564082 0.563306
vt 0.564082 0.535170
vt 0.578150 0.535170
vt 0.578150 0.521102
vt 0.564082 0.521102
vt 0.564082 0.492966
vt 0.578150 0.492966
vt 0.578150 0.478898
vt 0.564082 0.478898
vt 0.564082 0.450762
vt 0.550014 0.450762
vt 0.550014 0.436693
vt 0.620355 0.436693
vt 0.620355 0.675851
vt 0.564082 0.675851
vt 0.564082 0.661783
vt 0.578150 0.661783
vt 0.578150 0.647715
vt 0.564082 0.647715
vt 0.564082 0.619579
vt 0.578150 0.619579
vt 0.578150 0.605511
vt 0.578150 0.901716
vt 0.550014 0.901716
vt 0.550014 0.775105
vt 0.578150 0.775105
vt 0.876683 0.872805
vt 0.862615 0.872805
vt 0.862615 0.436693
vt 0.876683 0.436693
vt 0.523041 0.845057
vt 0.494905 0.845057
vt 0.494905 0.718445
vt 0.523041 0.718445
vt 0.245558 0.873194
vt 0.245558 0.887260
vt 0.231489 0.887260
vt 0.231489 0.873194
vt 0.635199 0.817308
vt 0.663335 0.817308
vt 0.663335 0.943920
vt 0.635199 0.943920
vt 0.777043 0.774715
vt 0.777043 0.619967
vt 0.791111 0.619967
vt 0.791111 0.634033
vt 0.805179 0.634033
vt 0.805179 0.774715
vt 0.634811 0.816919
vt 0.606674 0.816919
vt 0.606674 0.676239
vt 0.634811 0.676239
vt 0.776655 0.872805
vt 0.748519 0.872805
vt 0.748519 0.718056
vt 0.762587 0.718056
vt 0.762587 0.619577
vt 0.748519 0.619577
vt 0.748519 0.436693
vt 0.776655 0.436693
vt 0.635198 0.816919
vt 0.635198 0.676239
vt 0.663335 0.676239
vt 0.663335 0.816919
vt 0.188122 0.873193
vt 0.202190 0.873193
vt 0.202190 0.915398
vt 0.188122 0.915398
vt 0.847772 0.872805
vt 0.833704 0.872805
vt 0.833704 0.436693
vt 0.847772 0.436693
vt 0.719995 0.872805
vt 0.719995 0.436693
vt 0.748131 0.436693
vt 0.748131 0.872805
vt 0.423789 0.986126
vt 0.409721 0.986126
vt 0.409721 0.859514
vt 0.423789 0.859514
vt 0.992331 0.831766
vt 0.992331 0.958378
vt 0.978263 0.958378
vt 0.978263 0.831766
vt 0.859125 0.000194
vt 0.859125 0.436306
vt 0.648103 0.436306
vt 0.648103 0.422237
vt 0.662171 0.422237
vt 0.662171 0.408169
vt 0.676239 0.408169
vt 0.676239 0.394101
vt 0.690307 0.394101
vt 0.690307 0.380033
vt 0.704376 0.380033
vt 0.704376 0.351897
vt 0.718444 0.351897
vt 0.718444 0.337829
vt 0.704376 0.337829
vt 0.704376 0.309693
vt 0.718444 0.309693
vt 0.718444 0.295624
vt 0.704376 0.295624
vt 0.704376 0.267488
vt 0.718444 0.267488
vt 0.718444 0.253420
vt 0.704376 0.253420
vt 0.704376 0.225284
vt 0.718444 0.225284
vt 0.718444 0.211216
vt 0.704376 0.211216
vt 0.704376 0.183079
vt 0.718444 0.183079
vt 0.718444 0.169011
vt 0.704376 0.169011
vt 0.704376 0.140875
vt 0.718444 0.140875
vt 0.718444 0.126807
vt 0.704376 0.126807
vt 0.704376 0.098671
vt 0.718444 0.098671
vt 0.718444 0.084603
vt 0.704376 0.084603
vt 0.704376 0.056466
vt 0.718444 0.056466
vt 0.718444 0.042398
vt 0.704376 0.042398
vt 0.704376 0.014262
vt 0.690307 0.014262
vt 0.690307 0.000194
vt 0.805179 0.775105
vt 0.805179 0.901716
vt 0.777043 0.901716
vt 0.777043 0.775105
vt 0.000194 0.436693
vt 0.169012 0.436693
vt 0.169012 0.450762
vt 0.154943 0.450762
vt 0.154943 0.478898
vt 0.140875 0.478898
vt 0.140875 0.492966
vt 0.154943 0.492966
vt 0.154943 0.521102
vt 0.140875 0.521102
vt 0.140875 0.535170
vt 0.154943 0.535170
vt 0.154943 0.563306
vt 0.140875 0.563306
vt 0.140875 0.577375
vt 0.154943 0.577375
vt 0.154943 0.605511
vt 0.140875 0.605511
vt 0.140875 0.619579
vt 0.154943 0.619579
vt 0.154943 0.647715
vt 0.140875 0.647715
vt 0.140875 0.661783
vt 0.154943 0.661783
vt 0.154943 0.689920
vt 0.140875 0.689920
vt 0.140875 0.703988
vt 0.154943 0.703988
vt 0.154943 0.732124
vt 0.140875 0.732124
vt 0.140875 0.746192
vt 0.154943 0.746192
vt 0.154943 0.774328
vt 0.140875 0.774328
vt 0.140875 0.788396
vt 0.154943 0.788396
vt 0.154943 0.816533
vt 0.169012 0.816533
vt 0.169012 0.830601
vt 0.183079 0.830601
vt 0.183079 0.844669
vt 0.197147 0.844669
vt 0.197147 0.858737
vt 0.211215 0.858737
vt 0.211215 0.872805
vt 0.000194 0.872805
vt 0.677791 0.676239
vt 0.677791 0.845057
vt 0.663723 0.845057
vt 0.663723 0.830988
vt 0.663723 0.676239
vt 0.963419 0.718443
vt 0.949351 0.718443
vt 0.949351 0.577763
vt 0.963419 0.577763
vt 0.380810 0.718056
vt 0.380810 0.478898
vt 0.394876 0.478898
vt 0.394876 0.464830
vt 0.408945 0.464830
vt 0.408945 0.450762
vt 0.423014 0.450762
vt 0.423014 0.436693
vt 0.507421 0.436693
vt 0.507421 0.450762
vt 0.521490 0.450762
vt 0.521490 0.464830
vt 0.535559 0.464830
vt 0.535559 0.478898
vt 0.549627 0.478898
vt 0.549627 0.718056
vt 0.231100 0.873193
vt 0.231100 0.915398
vt 0.217033 0.915398
vt 0.217033 0.873193
vt 0.144365 0.873193
vt 0.144365 0.929466
vt 0.130297 0.929466
vt 0.130297 0.915398
vt 0.130297 0.873193
vt 0.960316 0.282333
vt 0.960316 0.423014
vt 0.946248 0.423014
vt 0.946248 0.282333
vt 0.438245 0.986126
vt 0.424177 0.986126
vt 0.424177 0.859514
vt 0.438245 0.859514
vt 0.634811 0.943920
vt 0.606674 0.943920
vt 0.606674 0.817308
vt 0.634811 0.817308
vt 0.465993 0.859125
vt 0.437857 0.859125
vt 0.437857 0.718445
vt 0.465993 0.718445
vt 0.946248 0.000195
vt 0.960316 0.000195
vt 0.960316 0.140875
vt 0.946248 0.140875
vt 0.648879 0.633647
vt 0.648879 0.619579
vt 0.634811 0.619579
vt 0.634811 0.591443
vt 0.648879 0.591443
vt 0.648879 0.577375
vt 0.634811 0.577375
vt 0.634811 0.549238
vt 0.648879 0.549238
vt 0.648879 0.535170
vt 0.634811 0.535170
vt 0.634811 0.507034
vt 0.648879 0.507034
vt 0.648879 0.492966
vt 0.634811 0.492966
vt 0.634811 0.464830
vt 0.648879 0.464830
vt 0.648879 0.450762
vt 0.634811 0.450762
vt 0.634811 0.436694
vt 0.691083 0.436694
vt 0.691083 0.675852
vt 0.620743 0.675852
vt 0.620743 0.661783
vt 0.634811 0.661783
vt 0.634811 0.633647
vt 0.691471 0.872805
vt 0.691471 0.436693
vt 0.719607 0.436693
vt 0.719607 0.872805
vt 0.409333 0.986126
vt 0.395265 0.986126
vt 0.395265 0.859514
vt 0.409333 0.859514
vt 0.436306 0.000194
vt 0.436306 0.436306
vt 0.000195 0.436306
vt 0.000195 0.000194
vt 0.819635 0.619967
vt 0.819635 0.774715
vt 0.805567 0.774715
vt 0.805567 0.634033
vt 0.805567 0.619967
vt 0.380421 0.436693
vt 0.380421 0.872805
vt 0.211603 0.872805
vt 0.211603 0.732122
vt 0.281944 0.732122
vt 0.281944 0.563305
vt 0.211603 0.563305
vt 0.211603 0.436693
vt 0.992331 0.831375
vt 0.978262 0.831375
vt 0.978262 0.704763
vt 0.992331 0.704763
vt 0.989228 0.000195
vt 0.989228 0.140875
vt 0.975160 0.140875
vt 0.975160 0.000195
vt 0.481612 0.986126
vt 0.467544 0.986126
vt 0.467544 0.859514
vt 0.481612 0.859514
vt 0.974772 0.281944
vt 0.960704 0.281944
vt 0.960704 0.141264
vt 0.974772 0.141264
vt 0.963807 0.986513
vt 0.963807 0.859901
vt 0.977875 0.859901
vt 0.977875 0.986513
vt 0.977875 0.577374
vt 0.963807 0.577374
vt 0.963807 0.436693
vt 0.977875 0.436693
vt 0.115842 0.929466
vt 0.115842 0.873193
vt 0.129910 0.873193
vt 0.129910 0.915398
vt 0.129910 0.929466
vt 0.029106 0.999805
vt 0.029106 0.873194
vt 0.043174 0.873194
vt 0.043174 0.999805
vt 0.508973 0.986126
vt 0.494905 0.986126
vt 0.494905 0.845446
vt 0.508973 0.845446
vt 0.467157 0.986126
vt 0.453089 0.986126
vt 0.453089 0.859514
vt 0.467157 0.859514
vt 0.014262 0.999805
vt 0.000194 0.999805
vt 0.000194 0.873194
vt 0.014262 0.873194
vt 0.086540 0.929466
vt 0.072474 0.929466
vt 0.072474 0.873193
vt 0.086540 0.873193
vt 0.158821 0.915398
vt 0.144754 0.915398
vt 0.144754 0.873193
vt 0.158821 0.873193
vt 0.523429 0.873194
vt 0.523429 0.718445
vt 0.537497 0.718445
vt 0.537497 0.873194
vt 0.833316 0.450760
vt 0.791111 0.450760
vt 0.791111 0.619577
vt 0.777043 0.619577
vt 0.777043 0.436693
vt 0.833316 0.436693
vt 0.437469 0.859125
vt 0.409333 0.859125
vt 0.409333 0.718445
vt 0.437469 0.718445
vt 0.173277 0.873193
vt 0.173277 0.915398
vt 0.159210 0.915398
vt 0.159210 0.873193
vt 0.550014 0.676239
vt 0.564082 0.676239
vt 0.564082 0.690306
vt 0.606287 0.690306
vt 0.606287 0.774715
vt 0.550014 0.774715
vt 0.873969 0.000195
vt 0.888037 0.000195
vt 0.888037 0.436306
vt 0.873969 0.436306
vt 0.888424 0.000195
vt 0.902493 0.000195
vt 0.902493 0.436306
vt 0.888424 0.436306
vt 0.848159 0.436693
vt 0.862227 0.436693
vt 0.862227 0.872805
vt 0.848159 0.872805
vt 0.877071 0.436693
vt 0.891139 0.436693
vt 0.891139 0.872805
vt 0.877071 0.872805
vt 0.452701 0.859514
vt 0.452701 0.986126
vt 0.438633 0.986126
vt 0.438633 0.859514
vt 0.380809 0.859514
vt 0.394877 0.859514
vt 0.394877 0.986126
vt 0.380809 0.986126
vt 0.916949 0.436306
vt 0.902880 0.436306
vt 0.902880 0.000195
vt 0.916949 0.000195
vt 0.072086 0.999805
vt 0.058017 0.999805
vt 0.058017 0.873194
vt 0.072086 0.873194
vt 0.663723 0.986126
vt 0.663723 0.845446
vt 0.677791 0.845446
vt 0.677791 0.986126
vt 0.028718 0.999805
vt 0.014650 0.999805
vt 0.014650 0.873194
vt 0.028718 0.873194
vt 0.963807 0.859512
vt 0.963807 0.718832
vt 0.977875 0.718832
vt 0.977875 0.859512
vt 0.057630 0.999805
vt 0.043561 0.999805
vt 0.043561 0.873194
vt 0.057630 0.873194
vt 0.963807 0.718443
vt 0.963807 0.577763
vt 0.977875 0.577763
vt 0.977875 0.718443
vt 0.992331 0.704374
vt 0.978262 0.704374
vt 0.978262 0.577763
vt 0.992331 0.577763
vt 0.974772 0.282333
vt 0.974772 0.423014
vt 0.960704 0.423014
vt 0.960704 0.282333
vt 0.963419 0.859901
vt 0.963419 0.986513
vt 0.949351 0.986513
vt 0.949351 0.859901
vt 0.960704 0.140875
vt 0.960704 0.000195
vt 0.974772 0.000195
vt 0.974772 0.140875
vt 0.975160 0.141264
vt 0.989228 0.141264
vt 0.989228 0.281944
vt 0.975160 0.281944
vt 0.592606 0.929853
vt 0.578538 0.929853
vt 0.578538 0.775105
vt 0.592606 0.775105
vt 0.931404 0.436306
vt 0.917336 0.436306
vt 0.917336 0.000195
vt 0.931404 0.000195
vt 0.934507 0.436693
vt 0.934507 0.872805
vt 0.920439 0.872805
vt 0.920439 0.436693
vt 0.245945 0.873193
vt 0.260013 0.873193
vt 0.260013 0.887261
vt 0.245945 0.887261
vt 0.115454 0.873193
vt 0.115454 0.929466
vt 0.101387 0.929466
vt 0.101387 0.873193
vt 0.647715 0.436306
vt 0.436693 0.436306
vt 0.436693 0.000195
vt 0.647715 0.000195
vt 0.992331 0.577374
vt 0.978263 0.577374
vt 0.978263 0.436693
vt 0.992331 0.436693
vt 0.494517 0.859125
vt 0.466381 0.859125
vt 0.466381 0.732512
vt 0.480449 0.732512
vt 0.480449 0.718445
vt 0.494517 0.718445
vn 0.0000 -1.0000 -0.0000
vn 0.0000 -0.0000 1.0000
vn -1.0000 0.0000 0.0000
vn 1.0000 -0.0000 0.0000
vn 0.0000 1.0000 0.0000
vn 0.0000 0.0000 -1.0000
usemtl Wall_WDoor_Ext_SemiBrick
s off
f 60/1/1 59/2/1 61/3/1 149/4/1
f 106/5/2 17/6/2 159/7/2 126/8/2
f 48/9/1 132/10/1 89/11/1 131/12/1
f 11/13/3 105/14/3 116/15/3 12/16/3
f 137/17/3 82/18/3 81/19/3 10/20/3
f 58/21/1 151/22/1 150/23/1 57/24/1
f 40/25/4 139/26/4 136/27/4 115/28/4
f 18/29/2 19/30/2 44/31/2 45/32/2
f 66/33/2 14/34/2 119/35/2 65/36/2
f 8/37/2 57/38/2 150/39/2 56/40/2
f 112/41/2 143/42/2 172/43/2 54/44/2
f 58/45/2 59/46/2 60/47/2 151/48/2
f 48/49/2 131/50/2 166/51/2 47/52/2
f 33/53/4 32/54/4 101/55/4 31/56/4 30/57/4 77/58/4 125/59/4 29/60/4 28/61/4 76/62/4 27/63/4 26/64/4 25/65/4 75/66/4 64/67/4 63/68/4 24/69/4 133/70/4 79/71/4 35/72/4 102/73/4 165/74/4 164/75/4 78/76/4 34/77/4 163/78/4
f 160/79/2 70/80/2 77/81/2 30/82/2
f 61/83/2 148/84/2 62/85/2 149/86/2
f 157/87/2 2/88/2 76/89/2 28/90/2
f 139/91/2 138/92/2 104/93/2 136/94/2
f 78/95/2 164/96/2 5/97/2 71/98/2
f 49/99/2 170/100/2 84/101/2 83/102/2 89/103/2 132/104/2
f 16/105/2 85/106/2 123/107/2 43/108/2
f 6/109/2 73/110/2 38/111/2 39/112/2 81/113/2 82/114/2 52/115/2 94/116/2
f 127/117/2 128/118/2 91/119/2 86/120/2
f 37/121/4 114/122/4 104/123/4 103/124/4
f 140/125/2 7/126/2 53/127/2 142/128/2
f 144/129/2 96/130/2 146/131/2 74/132/2
f 97/133/2 153/134/2 26/135/2 27/136/2
f 34/137/2 129/138/2 4/139/2 163/140/2
f 41/141/4 118/142/4 56/143/4 150/144/4 151/145/4 60/146/4 149/147/4 62/148/4 55/149/4 67/150/4 146/151/4 96/152/4 112/153/4 54/154/4 173/155/4 95/156/4 142/157/4 53/158/4 94/159/4 52/160/4 51/161/4 50/162/4 49/163/4 132/164/4 48/165/4 47/166/4 93/167/4 92/168/4 111/169/4 110/170/4 91/171/4 128/172/4 46/173/4 109/174/4 45/175/4 44/176/4 126/177/4 159/178/4 43/179/4 123/180/4 108/181/4 42/182/4 156/183/4 90/184/4 66/185/4 65/186/4
f 33/187/2 162/188/2 3/189/2 32/190/2
f 121/191/3 1/192/3 152/193/3 68/194/3 69/195/3 153/196/3 97/197/3 2/198/3 157/199/3 158/200/3 124/201/3 70/202/3 160/203/3 161/204/3 98/205/3 3/206/3 162/207/3 4/208/3 129/209/3 71/210/3 5/211/3 99/212/3 130/213/3 72/214/3 167/215/3 168/216/3 100/217/3 73/218/3 6/219/3 7/220/3 140/221/3 141/222/3 171/223/3 172/224/3 143/225/3 144/226/3 74/227/3 145/228/3 147/229/3 148/230/3 61/231/3 59/232/3 58/233/3 57/234/3 8/235/3 9/236/3
f 51/237/2 105/238/2 11/239/2 13/240/2 50/241/2
f 122/242/2 155/243/2 42/244/2 108/245/2
f 120/246/2 23/247/2 117/248/2 135/249/2 12/250/2 116/251/2 137/252/2 10/253/2 40/254/2 115/255/2 114/256/2 37/257/2 36/258/2 113/259/2 133/260/2 24/261/2
f 37/262/1 103/263/1 134/264/1 36/265/1
f 117/266/3 84/267/3 170/268/3 13/269/3 135/270/3
f 46/271/2 21/272/2 20/273/2 109/274/2
f 98/275/2 161/276/2 31/277/2 101/278/2
f 69/279/2 68/280/2 75/281/2 25/282/2
f 88/283/2 87/284/2 92/285/2 93/286/2
f 66/287/5 90/288/5 15/289/5 14/290/5
f 155/291/3 122/292/3 85/293/3 16/294/3 17/295/3 106/296/3 19/297/3 18/298/3 20/299/3 21/300/3 127/301/3 86/302/3 107/303/3 22/304/3 87/305/3 88/306/3 166/307/3 131/308/3 89/309/3 83/310/3 23/311/3 120/312/3 119/313/3 14/314/3 15/315/3 154/316/3
f 141/317/2 95/318/2 173/319/2 171/320/2
f 152/321/2 1/322/2 63/323/2 64/324/2
f 118/325/6 41/326/6 121/327/6 9/328/6
f 104/329/2 100/330/2 168/331/2 134/332/2 103/333/2
f 121/334/1 41/335/1 65/336/1 119/337/1 120/338/1 24/339/1 63/340/1 1/341/1
f 27/342/1 76/343/1 2/344/1 97/345/1
f 122/346/1 108/347/1 123/348/1 85/349/1
f 125/350/1 77/351/1 70/352/1 124/353/1
f 126/354/1 44/355/1 19/356/1 106/357/1
f 32/358/1 3/359/1 98/360/1 101/361/1
f 46/362/1 128/363/1 127/364/1 21/365/1
f 80/366/4 113/367/4 36/368/4 134/369/4 169/370/4
f 78/371/1 71/372/1 129/373/1 34/374/1
f 111/375/1 92/376/1 87/377/1 22/378/1
f 130/379/2 99/380/2 165/381/2 102/382/2
f 102/383/1 35/384/1 72/385/1 130/386/1
f 80/387/1 79/388/1 133/389/1 113/390/1
f 13/391/1 11/392/1 12/393/1 135/394/1
f 38/395/1 73/396/1 100/397/1 104/398/1
f 116/399/1 105/400/1 51/401/1 52/402/1 82/403/1 137/404/1
f 154/405/2 15/406/2 90/407/2 156/408/2
f 115/409/1 136/410/1 104/411/1 114/412/1
f 39/413/1 138/414/1 139/415/1 40/416/1 10/417/1 81/418/1
f 141/419/1 140/420/1 142/421/1 95/422/1
f 144/423/1 143/424/1 112/425/1 96/426/1
f 145/427/1 74/428/1 146/429/1 67/430/1
f 148/431/1 147/432/1 55/433/1 62/434/1
f 125/435/2 124/436/2 158/437/2 29/438/2
f 64/439/5 75/440/5 68/441/5 152/442/5
f 147/443/2 145/444/2 67/445/2 55/446/2
f 153/447/5 69/448/5 25/449/5 26/450/5
f 154/451/5 156/452/5 42/453/5 155/454/5
f 158/455/5 157/456/5 28/457/5 29/458/5
f 16/459/5 43/460/5 159/461/5 17/462/5
f 161/463/5 160/464/5 30/465/5 31/466/5
f 18/467/5 45/468/5 109/469/5 20/470/5
f 4/471/5 162/472/5 33/473/5 163/474/5
f 110/475/5 107/476/5 86/477/5 91/478/5
f 165/479/5 99/480/5 5/481/5 164/482/5
f 88/483/5 93/484/5 47/485/5 166/486/5
f 169/487/5 134/488/5 168/489/5 167/490/5
f 13/491/5 170/492/5 49/493/5 50/494/5
f 7/495/5 6/496/5 94/497/5 53/498/5
f 54/499/5 172/500/5 171/501/5 173/502/5
f 104/503/4 138/504/4 39/505/4 38/506/4
f 23/507/1 83/508/1 84/509/1 117/510/1
f 9/511/5 8/512/5 56/513/5 118/514/5
f 22/515/2 107/516/2 110/517/2 111/518/2
f 167/519/2 72/520/2 35/521/2 79/522/2 80/523/2 169/524/2
