# MagicaVoxel @ Ephtracy

# group
o 

# material
mtllib AidKit.mtl
usemtl palette

# normals
vn -1 0 0
vn 1 0 0
vn 0 0 1
vn 0 0 -1
vn 0 -1 0
vn 0 1 0

# texcoords
vt 0.869141 0.5
vt 0.900391 0.5
vt 0.916016 0.5

# verts
v -0.9 0 0.2
v -0.9 0 -0.5
v -0.9 0.3 0.2
v -0.9 0.3 -0.5
v -0.7 0.1 -0.5
v -0.7 0.1 -0.7
v -0.7 0.2 -0.5
v -0.7 0.2 -0.7
v 0 0.1 -0.5
v 0 0.1 -0.6
v 0 0.2 -0.5
v 0 0.2 -0.6
v -0.6 0.1 -0.5
v -0.6 0.1 -0.6
v -0.6 0.2 -0.5
v -0.6 0.2 -0.6
v 0.1 0.1 -0.5
v 0.1 0.1 -0.7
v 0.1 0.2 -0.5
v 0.1 0.2 -0.7
v 0.3 0 0.2
v 0.3 0 -0.5
v 0.3 0.1 -0.1
v 0.3 0.1 -0.2
v 0.3 0.1 -0.3
v 0.3 0.1 -0.4
v 0.3 0.2 -0.1
v 0.3 0.2 -0.2
v 0.3 0.2 -0.3
v 0.3 0.2 -0.4
v 0.3 0.3 0.2
v 0.3 0.3 -0.5
v -0.9 0 0.2
v -0.9 0.3 0.2
v 0.3 0 0.2
v 0.3 0.3 0.2
v -0.6 0.1 -0.6
v -0.6 0.2 -0.6
v -0.5 0.1 -0.6
v -0.5 0.2 -0.6
v -0.4 0.1 -0.6
v -0.4 0.2 -0.6
v -0.2 0.1 -0.6
v -0.2 0.2 -0.6
v -0.1 0.1 -0.6
v -0.1 0.2 -0.6
v 0 0.1 -0.6
v 0 0.2 -0.6
v -0.9 0 -0.5
v -0.9 0.3 -0.5
v -0.7 0.1 -0.5
v -0.7 0.2 -0.5
v -0.6 0.1 -0.5
v -0.6 0.2 -0.5
v 0 0.1 -0.5
v 0 0.2 -0.5
v 0.1 0.1 -0.5
v 0.1 0.2 -0.5
v 0.3 0 -0.5
v 0.3 0.3 -0.5
v -0.7 0.1 -0.7
v -0.7 0.2 -0.7
v -0.5 0.1 -0.7
v -0.5 0.2 -0.7
v -0.4 0.1 -0.7
v -0.4 0.2 -0.7
v -0.2 0.1 -0.7
v -0.2 0.2 -0.7
v -0.1 0.1 -0.7
v -0.1 0.2 -0.7
v 0.1 0.1 -0.7
v 0.1 0.2 -0.7
v -0.9 0 0.2
v 0.3 0 0.2
v -0.9 0 -0.5
v 0.3 0 -0.5
v -0.7 0.1 -0.5
v -0.6 0.1 -0.5
v 0 0.1 -0.5
v 0.1 0.1 -0.5
v -0.6 0.1 -0.6
v -0.5 0.1 -0.6
v -0.4 0.1 -0.6
v -0.2 0.1 -0.6
v -0.1 0.1 -0.6
v 0 0.1 -0.6
v -0.7 0.1 -0.7
v -0.5 0.1 -0.7
v -0.4 0.1 -0.7
v -0.2 0.1 -0.7
v -0.1 0.1 -0.7
v 0.1 0.1 -0.7
v -0.7 0.2 -0.5
v -0.6 0.2 -0.5
v 0 0.2 -0.5
v 0.1 0.2 -0.5
v -0.6 0.2 -0.6
v -0.5 0.2 -0.6
v -0.4 0.2 -0.6
v -0.2 0.2 -0.6
v -0.1 0.2 -0.6
v 0 0.2 -0.6
v -0.7 0.2 -0.7
v -0.5 0.2 -0.7
v -0.4 0.2 -0.7
v -0.2 0.2 -0.7
v -0.1 0.2 -0.7
v 0.1 0.2 -0.7
v -0.9 0.3 0.2
v 0.3 0.3 0.2
v -0.4 0.3 0.1
v -0.2 0.3 0.1
v -0.6 0.3 -0.1
v -0.4 0.3 -0.1
v -0.2 0.3 -0.1
v 0 0.3 -0.1
v -0.6 0.3 -0.3
v -0.4 0.3 -0.3
v -0.2 0.3 -0.3
v 0 0.3 -0.3
v -0.4 0.3 -0.4
v -0.2 0.3 -0.4
v -0.9 0.3 -0.5
v 0.3 0.3 -0.5

# faces
f 3/3/1 2/3/1 1/3/1
f 4/3/1 2/3/1 3/3/1
f 7/3/1 6/3/1 5/3/1
f 8/3/1 6/3/1 7/3/1
f 11/3/1 10/3/1 9/3/1
f 12/3/1 10/3/1 11/3/1
f 13/3/2 14/3/2 15/3/2
f 15/3/2 14/3/2 16/3/2
f 17/3/2 18/3/2 19/3/2
f 19/3/2 18/3/2 20/3/2
f 21/3/2 22/3/2 23/3/2
f 23/3/2 22/3/2 24/3/2
f 24/3/2 22/3/2 25/3/2
f 25/3/2 22/3/2 26/3/2
f 21/3/2 23/3/2 27/3/2
f 23/2/2 24/2/2 27/2/2
f 24/3/2 25/3/2 28/3/2
f 27/2/2 24/2/2 28/2/2
f 25/2/2 26/2/2 29/2/2
f 28/3/2 25/3/2 29/3/2
f 26/3/2 22/3/2 30/3/2
f 29/2/2 26/2/2 30/2/2
f 28/3/2 29/3/2 31/3/2
f 27/3/2 28/3/2 31/3/2
f 29/3/2 30/3/2 31/3/2
f 21/3/2 27/3/2 31/3/2
f 30/3/2 22/3/2 32/3/2
f 31/3/2 30/3/2 32/3/2
f 35/3/3 34/3/3 33/3/3
f 36/3/3 34/3/3 35/3/3
f 39/3/3 38/3/3 37/3/3
f 40/3/3 38/3/3 39/3/3
f 41/2/3 40/2/3 39/2/3
f 42/2/3 40/2/3 41/2/3
f 43/3/3 42/3/3 41/3/3
f 44/3/3 42/3/3 43/3/3
f 45/2/3 44/2/3 43/2/3
f 46/2/3 44/2/3 45/2/3
f 47/3/3 46/3/3 45/3/3
f 48/3/3 46/3/3 47/3/3
f 49/3/4 50/3/4 51/3/4
f 51/3/4 50/3/4 52/3/4
f 49/3/4 51/3/4 53/3/4
f 52/3/4 50/3/4 54/3/4
f 49/3/4 53/3/4 55/3/4
f 53/3/4 54/3/4 55/3/4
f 54/3/4 50/3/4 56/3/4
f 55/3/4 54/3/4 56/3/4
f 49/3/4 55/3/4 57/3/4
f 56/3/4 50/3/4 58/3/4
f 49/3/4 57/3/4 59/3/4
f 57/3/4 58/3/4 59/3/4
f 58/3/4 50/3/4 60/3/4
f 59/3/4 58/3/4 60/3/4
f 61/3/4 62/3/4 63/3/4
f 63/3/4 62/3/4 64/3/4
f 63/2/4 64/2/4 65/2/4
f 65/2/4 64/2/4 66/2/4
f 65/3/4 66/3/4 67/3/4
f 67/3/4 66/3/4 68/3/4
f 67/2/4 68/2/4 69/2/4
f 69/2/4 68/2/4 70/2/4
f 69/3/4 70/3/4 71/3/4
f 71/3/4 70/3/4 72/3/4
f 75/3/5 74/3/5 73/3/5
f 76/3/5 74/3/5 75/3/5
f 81/3/5 78/3/5 77/3/5
f 86/3/5 80/3/5 79/3/5
f 87/3/5 81/3/5 77/3/5
f 87/3/5 82/3/5 81/3/5
f 88/2/5 83/2/5 82/2/5
f 88/3/5 82/3/5 87/3/5
f 89/3/5 84/3/5 83/3/5
f 89/2/5 83/2/5 88/2/5
f 90/2/5 85/2/5 84/2/5
f 90/3/5 84/3/5 89/3/5
f 91/3/5 86/3/5 85/3/5
f 91/2/5 85/2/5 90/2/5
f 92/3/5 80/3/5 86/3/5
f 92/3/5 86/3/5 91/3/5
f 93/3/6 94/3/6 97/3/6
f 95/3/6 96/3/6 102/3/6
f 93/3/6 97/3/6 103/3/6
f 97/3/6 98/3/6 103/3/6
f 98/2/6 99/2/6 104/2/6
f 103/3/6 98/3/6 104/3/6
f 99/3/6 100/3/6 105/3/6
f 104/2/6 99/2/6 105/2/6
f 100/2/6 101/2/6 106/2/6
f 105/3/6 100/3/6 106/3/6
f 101/3/6 102/3/6 107/3/6
f 106/2/6 101/2/6 107/2/6
f 102/3/6 96/3/6 108/3/6
f 107/3/6 102/3/6 108/3/6
f 109/3/6 110/3/6 111/3/6
f 111/3/6 110/3/6 112/3/6
f 109/3/6 111/3/6 113/3/6
f 111/1/6 112/1/6 114/1/6
f 113/3/6 111/3/6 114/3/6
f 112/3/6 110/3/6 115/3/6
f 114/1/6 112/1/6 115/1/6
f 115/3/6 110/3/6 116/3/6
f 113/1/6 114/1/6 117/1/6
f 109/3/6 113/3/6 117/3/6
f 115/1/6 116/1/6 117/1/6
f 114/1/6 115/1/6 117/1/6
f 117/1/6 116/1/6 118/1/6
f 118/1/6 116/1/6 119/1/6
f 116/3/6 110/3/6 120/3/6
f 119/1/6 116/1/6 120/1/6
f 118/1/6 119/1/6 121/1/6
f 117/3/6 118/3/6 121/3/6
f 119/3/6 120/3/6 122/3/6
f 121/1/6 119/1/6 122/1/6
f 109/3/6 117/3/6 123/3/6
f 117/3/6 121/3/6 123/3/6
f 121/3/6 122/3/6 123/3/6
f 120/3/6 110/3/6 124/3/6
f 123/3/6 122/3/6 124/3/6
f 122/3/6 120/3/6 124/3/6
